<?xml version="1.0" standalone="no"?>
<!DOCTYPE svg PUBLIC "-//W3C//DTD SVG 20010904//EN"
 "http://www.w3.org/TR/2001/REC-SVG-20010904/DTD/svg10.dtd">
<svg version="1.0" xmlns="http://www.w3.org/2000/svg"
 width="108.000000pt" height="108.000000pt" viewBox="0 0 108.000000 108.000000"
 preserveAspectRatio="xMidYMid meet">
<metadata>
Created by potrace 1.15, written by Peter Selinger 2001-2017
</metadata><g><rect x="0" y="0" width="108" height="108" fill="#ffffff" rx="12" />
<g transform="translate(0.000000,108.000000) scale(0.025000,-0.025000)"
fill="#020304" stroke="none">
<path d="M400 3500 l0 -420 420 0 420 0 0 420 0 420 -420 0 -420 0 0 -420z
m720 0 l0 -300 -300 0 -300 0 0 300 0 300 300 0 300 0 0 -300z"/>
<path d="M640 3500 l0 -180 180 0 180 0 0 180 0 180 -180 0 -180 0 0 -180z"/>
<path d="M1360 3860 l0 -60 60 0 60 0 0 -60 0 -60 60 0 60 0 0 -60 0 -60 60 0
60 0 0 120 0 120 240 0 240 0 0 60 0 60 -240 0 -240 0 0 -60 0 -60 -120 0
-120 0 0 60 0 60 -60 0 -60 0 0 -60z"/>
<path d="M2440 3800 l0 -120 60 0 60 0 0 -60 0 -60 -180 0 -180 0 0 60 0 60
-180 0 -180 0 0 -120 0 -120 -60 0 -60 0 0 -60 0 -60 -60 0 -60 0 0 60 0 60
-60 0 -60 0 0 -60 0 -60 60 0 60 0 0 -180 0 -180 -60 0 -60 0 0 120 0 120 -60
0 -60 0 0 -120 0 -120 60 0 60 0 0 -60 0 -60 -60 0 -60 0 0 -60 0 -60 120 0
120 0 0 -60 0 -60 -60 0 -60 0 0 -60 0 -60 -60 0 -60 0 0 60 0 60 -60 0 -60 0
0 60 0 60 -60 0 -60 0 0 -60 0 -60 -120 0 -120 0 0 -60 0 -60 -60 0 -60 0 0
-60 0 -60 60 0 60 0 0 -60 0 -60 -60 0 -60 0 0 -60 0 -60 -120 0 -120 0 0 -60
0 -60 -60 0 -60 0 0 -300 0 -300 120 0 120 0 0 180 0 180 120 0 120 0 0 120 0
120 120 0 120 0 0 -60 0 -60 60 0 60 0 0 60 0 60 60 0 60 0 0 60 0 60 180 0
180 0 0 -60 0 -60 -60 0 -60 0 0 -60 0 -60 120 0 120 0 0 60 0 60 60 0 60 0 0
-240 0 -240 -60 0 -60 0 0 120 0 120 -180 0 -180 0 0 60 0 60 -60 0 -60 0 0
-60 0 -60 60 0 60 0 0 -120 0 -120 -60 0 -60 0 0 60 0 60 -60 0 -60 0 0 60 0
60 -60 0 -60 0 0 -60 0 -60 -60 0 -60 0 0 -60 0 -60 -60 0 -60 0 0 -60 0 -60
180 0 180 0 0 60 0 60 60 0 60 0 0 -120 0 -120 60 0 60 0 0 -60 0 -60 120 0
120 0 0 -120 0 -120 -60 0 -60 0 0 60 0 60 -120 0 -120 0 0 -120 0 -120 60 0
60 0 0 60 0 60 60 0 60 0 0 -60 0 -60 120 0 120 0 0 180 0 180 60 0 60 0 0 60
0 60 -60 0 -60 0 0 60 0 60 60 0 60 0 0 60 0 60 60 0 60 0 0 -60 0 -60 60 0
60 0 0 -120 0 -120 -60 0 -60 0 0 -60 0 -60 120 0 120 0 0 -60 0 -60 -120 0
-120 0 0 -60 0 -60 -60 0 -60 0 0 -60 0 -60 -60 0 -60 0 0 -60 0 -60 -60 0
-60 0 0 60 0 60 -60 0 -60 0 0 -60 0 -60 -60 0 -60 0 0 60 0 60 -60 0 -60 0 0
-120 0 -120 360 0 360 0 0 60 0 60 60 0 60 0 0 -60 0 -60 60 0 60 0 0 60 0 60
60 0 60 0 0 60 0 60 60 0 60 0 0 60 0 60 240 0 240 0 0 60 0 60 60 0 60 0 0
-120 0 -120 -60 0 -60 0 0 -120 0 -120 60 0 60 0 0 60 0 60 240 0 240 0 0 60
0 60 60 0 60 0 0 -60 0 -60 60 0 60 0 0 300 0 300 -60 0 -60 0 0 -60 0 -60
-60 0 -60 0 0 -120 0 -120 -60 0 -60 0 0 -60 0 -60 -60 0 -60 0 0 60 0 60 -60
0 -60 0 0 60 0 60 120 0 120 0 0 60 0 60 -60 0 -60 0 0 60 0 60 60 0 60 0 0
120 0 120 120 0 120 0 0 60 0 60 -60 0 -60 0 0 60 0 60 -60 0 -60 0 0 60 0 60
120 0 120 0 0 -60 0 -60 60 0 60 0 0 60 0 60 -60 0 -60 0 0 60 0 60 -120 0
-120 0 0 60 0 60 60 0 60 0 0 120 0 120 60 0 60 0 0 -120 0 -120 60 0 60 0 0
300 0 300 -60 0 -60 0 0 -120 0 -120 -240 0 -240 0 0 120 0 120 60 0 60 0 0
-60 0 -60 60 0 60 0 0 60 0 60 60 0 60 0 0 60 0 60 60 0 60 0 0 60 0 60 60 0
60 0 0 60 0 60 -60 0 -60 0 0 -60 0 -60 -120 0 -120 0 0 -120 0 -120 -60 0
-60 0 0 120 0 120 -120 0 -120 0 0 60 0 60 -60 0 -60 0 0 -60 0 -60 -240 0
-240 0 0 60 0 60 -120 0 -120 0 0 -60 0 -60 -60 0 -60 0 0 60 0 60 -60 0 -60
0 0 60 0 60 60 0 60 0 0 180 0 180 60 0 60 0 0 -60 0 -60 60 0 60 0 0 -60 0
-60 -60 0 -60 0 0 -60 0 -60 60 0 60 0 0 60 0 60 60 0 60 0 0 -60 0 -60 60 0
60 0 0 60 0 60 -60 0 -60 0 0 60 0 60 120 0 120 0 0 60 0 60 60 0 60 0 0 180
0 180 -180 0 -180 0 0 60 0 60 -60 0 -60 0 0 -120z m360 -240 l0 -120 -120 0
-120 0 0 60 0 60 60 0 60 0 0 60 0 60 60 0 60 0 0 -120z m-840 -180 l0 -60 60
0 60 0 0 -120 0 -120 -60 0 -60 0 0 -60 0 -60 60 0 60 0 0 -60 0 -60 60 0 60
0 0 -60 0 -60 -120 0 -120 0 0 -60 0 -60 60 0 60 0 0 -60 0 -60 60 0 60 0 0
-60 0 -60 -60 0 -60 0 0 -60 0 -60 60 0 60 0 0 -120 0 -120 60 0 60 0 0 120 0
120 60 0 60 0 0 -60 0 -60 60 0 60 0 0 60 0 60 60 0 60 0 0 60 0 60 60 0 60 0
0 120 0 120 -60 0 -60 0 0 -60 0 -60 -60 0 -60 0 0 -60 0 -60 -120 0 -120 0 0
60 0 60 120 0 120 0 0 120 0 120 -60 0 -60 0 0 -60 0 -60 -60 0 -60 0 0 120 0
120 120 0 120 0 0 -60 0 -60 120 0 120 0 0 -60 0 -60 120 0 120 0 0 120 0 120
60 0 60 0 0 -120 0 -120 -60 0 -60 0 0 -120 0 -120 -60 0 -60 0 0 -60 0 -60
60 0 60 0 0 -120 0 -120 60 0 60 0 0 120 0 120 60 0 60 0 0 -120 0 -120 60 0
60 0 0 120 0 120 60 0 60 0 0 -120 0 -120 -60 0 -60 0 0 -60 0 -60 60 0 60 0
0 -60 0 -60 -60 0 -60 0 0 60 0 60 -60 0 -60 0 0 -120 0 -120 60 0 60 0 0 -60
0 -60 -180 0 -180 0 0 60 0 60 -120 0 -120 0 0 -60 0 -60 -60 0 -60 0 0 -60 0
-60 -60 0 -60 0 0 -60 0 -60 60 0 60 0 0 -60 0 -60 -120 0 -120 0 0 -60 0 -60
60 0 60 0 0 -60 0 -60 -60 0 -60 0 0 60 0 60 -60 0 -60 0 0 60 0 60 60 0 60 0
0 60 0 60 -60 0 -60 0 0 60 0 60 -60 0 -60 0 0 60 0 60 -60 0 -60 0 0 240 0
240 -60 0 -60 0 0 60 0 60 60 0 60 0 0 60 0 60 -60 0 -60 0 0 120 0 120 -60 0
-60 0 0 -60 0 -60 -60 0 -60 0 0 -60 0 -60 60 0 60 0 0 -60 0 -60 -60 0 -60 0
0 60 0 60 -60 0 -60 0 0 120 0 120 60 0 60 0 0 60 0 60 60 0 60 0 0 60 0 60
-120 0 -120 0 0 60 0 60 120 0 120 0 0 -60 0 -60 60 0 60 0 0 120 0 120 -60 0
-60 0 0 60 0 60 -60 0 -60 0 0 120 0 120 60 0 60 0 0 60 0 60 60 0 60 0 0 -60z
m-720 -840 l0 -60 -60 0 -60 0 0 -60 0 -60 60 0 60 0 0 -60 0 -60 -60 0 -60 0
0 -60 0 -60 60 0 60 0 0 -60 0 -60 -60 0 -60 0 0 60 0 60 -120 0 -120 0 0 -60
0 -60 -60 0 -60 0 0 60 0 60 60 0 60 0 0 60 0 60 60 0 60 0 0 60 0 60 -60 0
-60 0 0 60 0 60 120 0 120 0 0 60 0 60 60 0 60 0 0 -60z m-600 -600 l0 -60
-60 0 -60 0 0 60 0 60 60 0 60 0 0 -60z m600 -360 l0 -60 -60 0 -60 0 0 60 0
60 60 0 60 0 0 -60z m480 0 l0 -60 -60 0 -60 0 0 -60 0 -60 60 0 60 0 0 -60 0
-60 -120 0 -120 0 0 120 0 120 60 0 60 0 0 60 0 60 60 0 60 0 0 -60z m1560
-360 l0 -180 -180 0 -180 0 0 180 0 180 180 0 180 0 0 -180z m-840 -480 l0
-60 -60 0 -60 0 0 60 0 60 60 0 60 0 0 -60z m-360 -120 l0 -60 -60 0 -60 0 0
60 0 60 60 0 60 0 0 -60z"/>
<path d="M1840 3200 l0 -120 60 0 60 0 0 120 0 120 -60 0 -60 0 0 -120z"/>
<path d="M2680 2180 l0 -60 -60 0 -60 0 0 -60 0 -60 120 0 120 0 0 120 0 120
-60 0 -60 0 0 -60z"/>
<path d="M2200 1760 l0 -120 60 0 60 0 0 -120 0 -120 120 0 120 0 0 60 0 60
60 0 60 0 0 60 0 60 60 0 60 0 0 60 0 60 60 0 60 0 0 60 0 60 -180 0 -180 0 0
-60 0 -60 60 0 60 0 0 -60 0 -60 -60 0 -60 0 0 -60 0 -60 -60 0 -60 0 0 120 0
120 -60 0 -60 0 0 60 0 60 -60 0 -60 0 0 -120z"/>
<path d="M3040 1700 l0 -60 60 0 60 0 0 60 0 60 -60 0 -60 0 0 -60z"/>
<path d="M3040 1220 l0 -60 60 0 60 0 0 60 0 60 -60 0 -60 0 0 -60z"/>
<path d="M3040 3500 l0 -420 420 0 420 0 0 420 0 420 -420 0 -420 0 0 -420z
m720 0 l0 -300 -300 0 -300 0 0 300 0 300 300 0 300 0 0 -300z"/>
<path d="M3280 3500 l0 -180 180 0 180 0 0 180 0 180 -180 0 -180 0 0 -180z"/>
<path d="M2800 3140 l0 -60 60 0 60 0 0 60 0 60 -60 0 -60 0 0 -60z"/>
<path d="M400 2840 l0 -120 60 0 60 0 0 60 0 60 60 0 60 0 0 60 0 60 -120 0
-120 0 0 -120z"/>
<path d="M760 2840 l0 -120 -60 0 -60 0 0 -60 0 -60 60 0 60 0 0 60 0 60 60 0
60 0 0 60 0 60 60 0 60 0 0 60 0 60 -120 0 -120 0 0 -120z"/>
<path d="M1120 2900 l0 -60 60 0 60 0 0 60 0 60 -60 0 -60 0 0 -60z"/>
<path d="M520 2420 l0 -60 60 0 60 0 0 60 0 60 -60 0 -60 0 0 -60z"/>
<path d="M400 860 l0 -420 420 0 420 0 0 420 0 420 -420 0 -420 0 0 -420z
m720 0 l0 -300 -300 0 -300 0 0 300 0 300 300 0 300 0 0 -300z"/>
<path d="M640 860 l0 -180 180 0 180 0 0 180 0 180 -180 0 -180 0 0 -180z"/>
<path d="M2680 560 l0 -120 120 0 120 0 0 60 0 60 -60 0 -60 0 0 60 0 60 -60
0 -60 0 0 -120z"/>
</g>
</g></svg>
